<svg width="558" height="320" viewBox="0 0 558 320" fill="none" xmlns="http://www.w3.org/2000/svg">
<g filter="url(#filter0_d_6_373)">
<rect x="18" y="14" width="521.17" height="284" rx="8" fill="white"/>
</g>
<g opacity="0.5">
<path opacity="0.1" d="M222.844 273.185C239.041 273.185 252.171 271.081 252.171 268.484C252.171 265.887 239.041 263.782 222.844 263.782C206.647 263.782 193.516 265.887 193.516 268.484C193.516 271.081 206.647 273.185 222.844 273.185Z" fill="#587EEC"/>
<path opacity="0.1" d="M382.263 273.317C402.474 273.317 418.859 271.213 418.859 268.616C418.859 266.019 402.474 263.915 382.263 263.915C362.052 263.915 345.667 266.019 345.667 268.616C345.667 271.213 362.052 273.317 382.263 273.317Z" fill="#587EEC"/>
<path opacity="0.1" d="M116.436 139.772H146.982V181.328H118.672C118.597 181.755 118.525 182.184 118.446 182.614H146.982V216.128C146.931 216.113 146.886 216.095 146.838 216.077C146.031 215.758 145.231 215.422 144.43 215.061L143.918 214.83C143.116 214.452 142.313 214.051 141.51 213.628C141.231 213.481 140.951 213.328 140.674 213.172C136.218 210.681 132.17 207.524 128.671 203.811C128.568 203.712 128.472 203.607 128.37 203.511C127.882 202.982 127.404 202.447 126.94 201.9L126.428 201.3C125.881 200.63 125.351 199.942 124.836 199.245C124.761 199.143 124.689 199.04 124.61 198.944C122.517 196.047 120.779 192.911 119.434 189.601C119.392 189.502 119.355 189.394 119.316 189.301C118.903 188.24 118.537 187.168 118.218 186.087C118.079 185.633 117.947 185.185 117.832 184.714C117.79 184.575 117.754 184.44 117.721 184.305C116.012 177.645 115.81 170.726 115.81 163.856C115.81 163.054 115.81 162.249 115.81 161.453C115.81 158.674 115.843 155.877 115.891 153.083C115.891 152.359 115.921 151.638 115.936 150.911C115.978 149.067 116.039 147.222 116.117 145.378C116.135 144.864 116.159 144.353 116.186 143.842C116.186 143.548 116.201 143.254 116.231 142.959C116.303 141.89 116.364 140.829 116.436 139.772Z" fill="#587EEC"/>
<path opacity="0.1" d="M146.982 93.5022H130.227C132.95 89.2471 135.926 85.1582 139.139 81.2573C141.628 78.2051 144.255 75.2311 146.982 72.3651V93.5022Z" fill="#587EEC"/>
<path opacity="0.1" d="M146.982 94.788V138.486H116.532C116.532 138.36 116.553 138.231 116.562 138.105C116.589 137.759 116.616 137.414 116.647 137.071C116.68 136.669 116.716 136.263 116.755 135.869C116.794 135.476 116.836 134.995 116.881 134.56C116.927 134.124 116.969 133.682 117.02 133.247C117.071 132.811 117.116 132.376 117.17 131.943C117.224 131.51 117.273 131.072 117.33 130.639C117.375 130.279 117.423 129.921 117.471 129.561C117.541 129.053 117.613 128.542 117.691 128.038C117.691 127.963 117.712 127.884 117.724 127.812C118.273 124.118 119.022 120.455 119.966 116.841C120.955 113.05 122.217 109.335 123.744 105.726C125.366 101.95 127.265 98.2994 129.426 94.803L146.982 94.788Z" fill="#587EEC"/>
<path opacity="0.1" d="M154.275 139.769V181.328H219.518V139.769H154.275ZM154.275 182.611V218.3C154.648 218.378 155.018 218.453 155.386 218.516C155.885 218.612 156.382 218.7 156.89 218.775C156.987 218.79 157.086 218.805 157.191 218.814C157.39 218.847 157.595 218.874 157.793 218.901C158.296 218.97 158.796 219.027 159.298 219.072C159.536 219.096 159.777 219.117 160.018 219.135L160.598 219.18C160.914 219.204 161.227 219.222 161.538 219.231C161.73 219.231 161.923 219.249 162.121 219.255C162.272 219.255 162.422 219.255 162.579 219.255C162.735 219.255 162.958 219.255 163.148 219.255C163.407 219.255 163.665 219.255 163.921 219.255H164.267C164.526 219.255 164.785 219.255 165.041 219.231H165.059C165.237 219.231 165.417 219.231 165.598 219.207C165.648 219.21 165.698 219.21 165.748 219.207C165.899 219.207 166.049 219.207 166.194 219.186H166.299L167.307 219.108C167.638 219.078 167.972 219.039 168.31 219.003L168.996 218.922C171.788 218.531 174.548 217.945 177.258 217.167C183.343 215.473 189.297 213.103 195.38 211.366C203.244 209.128 211.933 208.029 219.533 210.766V182.611H154.275ZM219.518 93.5023V38.1752C212.375 38.098 205.251 38.9318 198.32 40.6566C181.799 44.7993 166.976 53.7847 154.275 65.2605V93.4993H157.55V94.7821H154.275V138.486H219.518V94.7851H170.994V93.5023H219.518ZM303.319 74.8136C299.232 74.6694 295.169 73.3776 291.494 71.3829C284.466 67.5676 278.853 61.6765 272.58 56.7047C259.548 46.3494 243.386 40.1009 226.805 38.5507V93.5023H319.942L320.174 93.259L303.319 74.8136ZM311.804 73.3115L320.8 83.1651V70.728C317.787 71.1005 315.148 71.9867 311.816 73.2995L311.804 73.3115ZM320.8 227.162V182.611H301.631C301.58 182.422 301.529 182.229 301.468 182.037C301.526 182.229 301.574 182.422 301.628 182.611H226.817V214.83C227.527 215.356 228.228 215.909 228.924 216.47C229.673 217.071 230.413 217.705 231.157 218.327L231.906 218.946C232.264 219.246 232.626 219.547 232.99 219.829C233.712 220.414 234.441 220.991 235.178 221.559C235.542 221.86 235.915 222.13 236.285 222.413C242.163 226.898 248.363 230.945 254.835 234.522C256.285 235.323 257.749 236.105 259.226 236.869C260.21 237.37 261.2 237.869 262.194 238.353C263.687 239.08 265.191 239.781 266.708 240.455C280.694 246.722 295.482 251.021 310.651 253.232C314.02 253.729 317.402 254.119 320.797 254.404V227.159H321.098L320.8 227.162ZM226.817 94.7851V138.486H320.812V94.7851H226.817ZM226.817 139.769V181.328H320.812V139.769H226.817ZM328.108 70.6739V84.547L339.59 71.9717C335.786 71.3589 331.958 70.9213 328.108 70.6589V70.6739ZM328.108 139.784V181.328H419.53V139.769L328.108 139.784ZM419.196 230.461L419.518 182.611H328.108V254.881C333.997 255.128 339.894 255.058 345.775 254.671H345.878C348.687 254.495 351.483 254.238 354.266 253.902H354.329C369.177 252.177 383.695 248.311 397.429 242.423L419.196 230.461ZM437.158 146.612C436.815 145.804 436.457 145.002 436.093 144.209C435.413 142.707 434.693 141.247 433.953 139.787H426.82V181.328H444.854C444.845 169.564 441.863 157.547 437.167 146.597L437.158 146.612ZM426.82 182.626V223.783C431.9 218.922 436.192 213.361 439.283 207.004C443 199.35 444.701 191.062 444.839 182.62L426.82 182.626ZM426.82 127.674V138.489H433.285C431.329 134.766 429.174 131.151 426.829 127.659L426.82 127.674ZM364.818 78.8271C364.343 78.6469 363.867 78.4636 363.389 78.2864C358.342 76.426 353.184 74.8789 347.945 73.654L330.374 92.9015L330.037 93.259L330.263 93.5053H392.8C384.091 87.5212 374.701 82.5891 364.827 78.8121L364.818 78.8271ZM394.633 94.8001H329.39L328.108 95.9717V138.486H339.347H339.365H419.542V117.893C412.289 109.138 403.918 101.369 394.642 94.7851L394.633 94.8001Z" fill="#587EEC"/>
<path opacity="0.1" d="M146.982 116.829V138.486H116.532C116.532 138.36 116.553 138.231 116.562 138.105C116.589 137.759 116.616 137.414 116.647 137.071C116.68 136.669 116.716 136.263 116.755 135.87C116.794 135.476 116.836 134.995 116.881 134.56C116.927 134.124 116.969 133.683 117.02 133.247C117.071 132.811 117.116 132.376 117.17 131.943C117.224 131.511 117.273 131.072 117.33 130.639C117.375 130.279 117.423 129.921 117.471 129.561C117.541 129.053 117.613 128.542 117.691 128.038C117.691 127.963 117.712 127.885 117.724 127.812C118.273 124.118 119.022 120.456 119.966 116.841L146.982 116.829Z" fill="#587EEC"/>
<path opacity="0.1" d="M116.436 139.772H146.982V181.328H118.672C118.597 181.755 118.525 182.184 118.446 182.614H146.982V216.128C146.931 216.113 146.886 216.095 146.838 216.077C146.031 215.758 145.231 215.422 144.43 215.061L143.918 214.83C143.116 214.452 142.313 214.051 141.51 213.628C141.231 213.481 140.951 213.328 140.674 213.172C136.218 210.681 132.17 207.524 128.671 203.811C128.568 203.712 128.472 203.607 128.37 203.511C127.882 202.982 127.404 202.447 126.94 201.9L126.428 201.3C125.881 200.63 125.351 199.942 124.836 199.245C124.761 199.143 124.689 199.04 124.61 198.944C122.517 196.047 120.779 192.911 119.434 189.601C119.392 189.502 119.355 189.394 119.316 189.301C118.903 188.24 118.537 187.168 118.218 186.087C118.079 185.633 117.947 185.185 117.832 184.714C117.79 184.575 117.754 184.44 117.721 184.305C116.012 177.645 115.81 170.726 115.81 163.856C115.81 163.054 115.81 162.249 115.81 161.453C115.81 158.674 115.843 155.877 115.891 153.083C115.891 152.359 115.921 151.638 115.936 150.911C115.978 149.067 116.039 147.222 116.117 145.378C116.135 144.864 116.159 144.353 116.186 143.842C116.186 143.548 116.201 143.254 116.231 142.959C116.303 141.89 116.364 140.829 116.436 139.772Z" fill="#587EEC"/>
<path opacity="0.1" d="M177.243 101.043V138.486H154.275V101.043H157.55V88.3651H170.991V101.043H177.243Z" fill="#587EEC"/>
<path opacity="0.1" d="M177.243 139.769H154.278V181.325H177.243V139.769Z" fill="#587EEC"/>
<path opacity="0.1" d="M154.275 182.614H177.243V217.161C174.533 217.938 171.772 218.524 168.981 218.913L168.294 218.997C167.957 219.036 167.623 219.069 167.292 219.102C166.961 219.135 166.618 219.159 166.284 219.18H166.179C166.034 219.18 165.878 219.198 165.736 219.201H165.583C165.402 219.201 165.221 219.219 165.041 219.225C164.785 219.24 164.529 219.243 164.267 219.246C164.156 219.246 164.051 219.246 163.939 219.246C163.68 219.246 163.425 219.246 163.166 219.246H162.597C162.443 219.246 162.296 219.246 162.136 219.246L161.556 219.225C161.255 219.225 160.93 219.192 160.617 219.171L160.039 219.129L159.319 219.063C158.814 219.018 158.311 218.961 157.814 218.892L157.212 218.808L156.911 218.766C156.409 218.687 155.912 218.603 155.407 218.507C155.036 218.444 154.669 218.366 154.296 218.291L154.275 182.614Z" fill="#587EEC"/>
<path opacity="0.1" d="M320.812 96.6206H301.875V138.483H320.812V96.6206Z" fill="#587EEC"/>
<path opacity="0.1" d="M320.815 139.769V181.328H226.817V163.402H276.885V173.977H301.875V139.769H320.815Z" fill="#587EEC"/>
<path opacity="0.1" d="M321.113 227.171H320.812V254.434C317.421 254.147 314.04 253.758 310.669 253.265C295.493 251.047 280.698 246.738 266.708 240.461C262.669 238.647 258.712 236.666 254.838 234.519C248.366 230.94 242.165 226.893 236.286 222.41C234.809 221.28 233.351 220.124 231.912 218.943C230.916 218.123 229.926 217.282 228.924 216.464C228.228 215.903 227.527 215.35 226.817 214.821V182.614H301.625C301.574 182.422 301.523 182.229 301.468 182.04C301.526 182.229 301.58 182.422 301.631 182.614H320.812V227.153C320.915 227.156 321.014 227.165 321.113 227.171Z" fill="#587EEC"/>
<path opacity="0.1" d="M370.203 93.5021H357.863V89.6749H363.395V78.2742C363.874 78.4484 364.352 78.6277 364.827 78.8119V89.6749H370.203V93.5021Z" fill="#587EEC"/>
<path opacity="0.1" d="M399.933 138.486H339.353C339.353 138.486 339.353 138.486 339.374 138.501L339.347 138.486H328.108V96.6235H331.292V127.566H345.845V109.241H357.866V94.788H370.206V109.253H382.227V127.578H399.933V138.486Z" fill="#587EEC"/>
<path opacity="0.1" d="M328.108 139.769V181.328H399.933V139.769H328.108ZM419.431 230.247L419.53 197.352H399.933V182.632H328.108V254.881C333.997 255.128 339.894 255.058 345.775 254.671H345.878C348.687 254.495 351.483 254.238 354.266 253.902H354.329C369.177 252.177 383.695 248.311 397.429 242.423" fill="#587EEC"/>
<path opacity="0.1" d="M428.096 182.614H444.851C444.704 191.052 443.006 199.341 439.292 206.995C436.201 213.355 431.906 218.916 426.832 223.773V197.337H428.096V182.614Z" fill="#587EEC"/>
<path opacity="0.1" d="M444.861 181.328H428.096V146.597H437.168C441.863 157.547 444.845 169.564 444.861 181.328Z" fill="#587EEC"/>
<path opacity="0.1" d="M320.815 108.259H310.669V121.384H320.815V108.259Z" fill="#587EEC"/>
<path opacity="0.1" d="M320.815 135.464H310.669V138.486H320.815V135.464Z" fill="#587EEC"/>
<path opacity="0.1" d="M320.815 139.769H310.669V148.586H320.815V139.769Z" fill="#587EEC"/>
<path opacity="0.1" d="M320.815 162.669H310.669V175.794H320.815V162.669Z" fill="#587EEC"/>
<path opacity="0.1" d="M320.815 189.875H310.669V203H320.815V189.875Z" fill="#587EEC"/>
<path opacity="0.1" d="M320.812 227.153C320.915 227.153 321.014 227.153 321.113 227.171H320.812V230.22H310.669V217.08H320.812V227.153Z" fill="#587EEC"/>
<path opacity="0.1" d="M320.812 244.28V254.418C317.421 254.132 314.04 253.743 310.669 253.25V244.28H320.812Z" fill="#587EEC"/>
<path opacity="0.1" d="M270.299 180.364H226.817V181.328H270.299V180.364Z" fill="#587EEC"/>
<path opacity="0.1" d="M270.299 182.611H226.817V186.306H270.299V182.611Z" fill="#587EEC"/>
<path opacity="0.1" d="M270.299 198.419H226.817V204.361H270.299V198.419Z" fill="#587EEC"/>
<path opacity="0.1" d="M270.296 216.474V222.416H236.286C234.809 221.29 233.35 220.135 231.909 218.949C230.913 218.129 229.926 217.288 228.921 216.474H270.296Z" fill="#587EEC"/>
<path opacity="0.1" d="M270.296 234.525V240.461H266.705C262.67 238.645 258.714 236.663 254.838 234.516L270.296 234.525Z" fill="#587EEC"/>
<path opacity="0.1" d="M354.338 143.797H345.778V152.341H354.338V143.797Z" fill="#587EEC"/>
<path opacity="0.1" d="M169.002 103.99H160.442V112.534H169.002V103.99Z" fill="#587EEC"/>
<path opacity="0.1" d="M169.002 123.835H160.442V132.379H169.002V123.835Z" fill="#587EEC"/>
<path opacity="0.1" d="M169.002 143.68H160.442V152.224H169.002V143.68Z" fill="#587EEC"/>
<path opacity="0.1" d="M169.002 163.523H160.442V172.066H169.002V163.523Z" fill="#587EEC"/>
<path opacity="0.1" d="M169.002 183.368H160.442V191.912H169.002V183.368Z" fill="#587EEC"/>
<path opacity="0.1" d="M169.002 203.213H160.442V211.757H169.002V203.213Z" fill="#587EEC"/>
<path opacity="0.1" d="M387.015 143.797H378.456V152.341H387.015V143.797Z" fill="#587EEC"/>
<path opacity="0.1" d="M354.338 164.871H345.778V173.415H354.338V164.871Z" fill="#587EEC"/>
<path opacity="0.1" d="M387.015 164.871H378.456V173.415H387.015V164.871Z" fill="#587EEC"/>
<path opacity="0.1" d="M354.338 185.942H345.778V194.486H354.338V185.942Z" fill="#587EEC"/>
<path opacity="0.1" d="M387.015 185.942H378.456V194.486H387.015V185.942Z" fill="#587EEC"/>
<path opacity="0.1" d="M354.338 207.016H345.778V215.56H354.338V207.016Z" fill="#587EEC"/>
<path opacity="0.1" d="M387.015 207.016H378.456V215.56H387.015V207.016Z" fill="#587EEC"/>
<path opacity="0.1" d="M354.338 228.09H345.778V236.634H354.338V228.09Z" fill="#587EEC"/>
<path opacity="0.1" d="M387.015 228.09H378.456V236.634H387.015V228.09Z" fill="#587EEC"/>
<path opacity="0.1" d="M345.778 254.671V249.161H354.335V253.887L345.778 254.671Z" fill="#587EEC"/>
<path opacity="0.1" d="M117.688 127.807V132.694H146.982V127.807H117.688ZM120.607 132.388H118.218V128.107H120.626L120.607 132.388ZM123.524 132.388H121.116V128.107H123.524V132.388ZM126.434 132.388H124.027V128.107H126.434V132.388ZM129.351 132.388H126.946V128.107H129.354L129.351 132.388ZM132.264 132.388H129.857V128.107H132.264V132.388ZM135.181 132.388H132.773V128.107H135.181V132.388ZM138.097 132.388H135.69V128.107H138.097V132.388ZM141.011 132.388H138.603V128.107H141.011V132.388ZM143.924 132.388H141.516V128.107H143.924V132.388ZM146.838 132.388H144.43V128.107H146.838V132.388Z" fill="#587EEC"/>
<path opacity="0.1" d="M117.688 142.028V146.916H146.982V142.028H117.688ZM120.607 146.606H118.218V142.338H120.626L120.607 146.606ZM123.524 146.606H121.116V142.338H123.524V146.606ZM126.434 146.606H124.027V142.338H126.434V146.606ZM129.351 146.606H126.946V142.338H129.354L129.351 146.606ZM132.264 146.606H129.857V142.338H132.264V146.606ZM135.181 146.606H132.773V142.338H135.181V146.606ZM138.097 146.606H135.69V142.338H138.097V146.606ZM141.011 146.606H138.603V142.338H141.011V146.606ZM143.924 146.606H141.516V142.338H143.924V146.606ZM146.838 146.606H144.43V142.338H146.838V146.606Z" fill="#587EEC"/>
<path opacity="0.1" d="M117.688 156.255V161.152H146.982V156.255H117.688ZM120.607 160.834H118.218V156.562H120.626L120.607 160.834ZM123.524 160.834H121.116V156.562H123.524V160.834ZM126.434 160.834H124.027V156.562H126.434V160.834ZM129.351 160.834H126.946V156.562H129.354L129.351 160.834ZM132.264 160.834H129.857V156.562H132.264V160.834ZM135.181 160.834H132.773V156.562H135.181V160.834ZM138.097 160.834H135.69V156.562H138.097V160.834ZM141.011 160.834H138.603V156.562H141.011V160.834ZM143.924 160.834H141.516V156.562H143.924V160.834ZM146.838 160.834H144.43V156.562H146.838V160.834Z" fill="#587EEC"/>
<path opacity="0.1" d="M117.688 170.483V175.365H146.982V170.483H117.688ZM120.607 175.061H118.218V170.786H120.626L120.607 175.061ZM123.524 175.061H121.116V170.786H123.524V175.061ZM126.434 175.061H124.027V170.786H126.434V175.061ZM129.351 175.061H126.946V170.786H129.354L129.351 175.061ZM132.264 175.061H129.857V170.786H132.264V175.061ZM135.181 175.061H132.773V170.786H135.181V175.061ZM138.097 175.061H135.69V170.786H138.097V175.061ZM141.011 175.061H138.603V170.786H141.011V175.061ZM143.924 175.061H141.516V170.786H143.924V175.061ZM146.838 175.061H144.43V170.786H146.838V175.061Z" fill="#587EEC"/>
<path opacity="0.1" d="M117.814 184.708C117.932 185.167 118.064 185.627 118.203 186.081V185.014H120.61V189.286H119.322C119.361 189.385 119.401 189.493 119.44 189.586H146.982V184.708H117.814ZM123.533 189.286H121.125V185.014H123.533V189.286ZM126.443 189.286H124.036V185.014H126.443V189.286ZM129.36 189.286H126.946V185.014H129.354L129.36 189.286ZM132.273 189.286H129.866V185.014H132.273V189.286ZM135.19 189.286H132.782V185.014H135.19V189.286ZM138.106 189.286H135.699V185.014H138.106V189.286ZM141.02 189.286H138.612V185.014H141.02V189.286ZM143.933 189.286H141.525V185.014H143.933V189.286ZM146.847 189.286H144.439V185.014H146.847V189.286Z" fill="#587EEC"/>
<path opacity="0.1" d="M124.617 198.935C124.692 199.031 124.764 199.139 124.842 199.236H126.434V201.287C126.606 201.492 126.775 201.696 126.949 201.888V199.224H129.357V203.51H128.382C128.478 203.61 128.571 203.715 128.683 203.811H146.991V198.935H124.617ZM132.264 203.51H129.857V199.242H132.264V203.51ZM135.181 203.51H132.773V199.242H135.181V203.51ZM138.097 203.51H135.69V199.242H138.097V203.51ZM141.011 203.51H138.603V199.242H141.011V203.51ZM143.924 203.51H141.516V199.242H143.924V203.51ZM146.838 203.51H144.43V199.242H146.838V203.51Z" fill="#587EEC"/>
<path opacity="0.1" d="M140.686 213.16C140.96 213.316 141.239 213.46 141.522 213.616V213.466H143.93V214.818L144.442 215.055V213.466H146.85V216.065C146.896 216.088 146.944 216.106 146.994 216.119V213.16H140.686Z" fill="#587EEC"/>
<path opacity="0.1" d="M339.353 138.486H339.371H339.353ZM320.812 227.15H321.113H320.812ZM301.468 182.037C301.526 182.229 301.574 182.421 301.628 182.611C301.58 182.421 301.529 182.229 301.468 182.037ZM339.353 138.477H339.371H339.353ZM157.562 93.4932V94.7759H171.006V93.4932H157.562ZM320.812 227.15H321.113H320.812ZM301.468 182.037C301.526 182.229 301.574 182.421 301.628 182.611C301.58 182.421 301.529 182.229 301.468 182.037ZM339.353 138.477H339.371H339.353ZM320.812 227.141H321.113H320.812ZM301.468 182.037C301.526 182.229 301.574 182.421 301.628 182.611C301.58 182.421 301.529 182.229 301.468 182.037Z" fill="#587EEC"/>
<path d="M251.202 152.23C251.202 152.23 250.016 152.065 250.016 150.34C250.016 148.616 249.167 145.395 249.167 145.395C249.167 145.38 248.433 139.787 247.419 138.898C246.404 138.008 245.101 132.787 245.101 132.787C245.101 132.787 244.878 129.954 244.424 129.344C243.969 128.735 243.355 127.241 242.449 125.112C241.544 122.982 237.766 121.507 237.766 121.507C237.766 121.507 230.937 117.553 229.002 116.264C228.826 116.158 228.661 116.035 228.511 115.895C228.174 115.453 226.705 115.444 226.705 115.444C226.552 114.477 226.404 113.365 226.356 112.359C226.356 112.251 226.356 112.143 226.341 112.035C228.499 110.761 230.125 108.754 230.919 106.381C230.955 106.267 230.985 106.146 231.018 106.032C231.148 105.99 231.267 105.921 231.368 105.83C231.469 105.739 231.55 105.628 231.605 105.504C231.78 105.116 231.783 104.662 232 104.302C232.252 103.875 232.734 103.647 233.113 103.326C234.07 102.514 234.317 101.148 234.272 99.9039C234.242 98.8975 234.079 97.8821 234.142 96.8817L234.161 96.6294C234.179 96.4792 234.2 96.329 234.227 96.1848C234.374 95.4397 234.696 94.7368 234.877 93.9978C235.057 93.2587 235.076 92.4266 234.654 91.7897C234.037 90.8554 232.752 90.6692 231.623 90.573C230.344 90.4649 229.2 90.6061 228.382 89.5456C227.999 88.9914 227.568 88.4717 227.094 87.9925C226.925 87.8363 225.288 86.8389 225.288 86.7728C223.69 86.0341 221.878 85.8954 220.186 86.3823C219.337 86.6286 218.537 87.0312 217.676 87.2325C215.819 87.6711 213.682 87.1964 212.105 88.2569C211.226 88.8577 210.699 89.813 210.206 90.7443C209.804 91.5113 209.397 92.2774 208.984 93.0424C208.319 94.3012 207.641 95.5809 207.361 96.9749C207.303 97.2782 207.266 97.5854 207.253 97.8941V97.9091C207.253 98.0203 207.253 98.1314 207.253 98.2426V98.3838C207.253 98.4889 207.253 98.5911 207.271 98.6842C207.289 98.7773 207.286 98.8074 207.295 98.8705C207.304 98.9335 207.319 99.0747 207.337 99.1709C207.355 99.267 207.392 99.4352 207.428 99.5674C207.443 99.6245 207.464 99.6786 207.482 99.7326C207.512 99.8348 207.548 99.9339 207.587 100.033C207.608 100.084 207.629 100.138 207.653 100.189C207.699 100.294 207.753 100.397 207.807 100.49C207.831 100.532 207.849 100.571 207.873 100.61C207.957 100.75 208.05 100.884 208.15 101.012C208.794 101.815 209.742 102.325 210.443 103.076C210.443 103.106 210.443 103.136 210.443 103.163C210.443 103.247 210.443 103.329 210.443 103.413C210.481 105.088 210.927 106.728 211.745 108.192C212.562 109.655 213.725 110.897 215.133 111.809C215.133 111.923 215.148 112.041 215.154 112.155C215.212 113.046 215.201 113.941 215.121 114.831C214.998 114.687 214.845 114.573 214.672 114.496C214.499 114.419 214.311 114.381 214.121 114.387C213.992 114.381 213.863 114.392 213.736 114.42L213.709 114.399V114.426C213.047 114.588 212.231 115.276 211.452 117.232C211.452 117.232 209.08 119.899 207.274 119.788C205.468 119.677 200.896 122.564 200.896 122.564C200.896 122.564 196.436 125.454 195.479 128.398C194.944 130.068 194.302 131.701 193.559 133.289L188.045 144.629L187.027 153.627C187.027 153.627 187.59 157.628 187.479 158.238C187.367 158.848 189.793 164.349 189.793 164.349C189.793 164.349 197.808 178.405 201.083 179.126L201.318 178.961C201.458 179.034 201.607 179.089 201.76 179.126L202.434 178.651C202.475 179.18 202.458 179.712 202.383 180.237C201.932 181.625 202.552 190.683 203.34 192.458C204.129 194.234 203.849 217.513 203.849 217.513L203.738 219.567C203.738 219.567 203.738 219.634 203.765 219.748L203.738 220.234L203.819 220.276C203.903 220.928 203.876 221.59 203.738 222.232C203.455 223.133 203.34 225.681 203.34 225.681C203.34 225.681 201.086 240.065 202.155 242.955C203.223 245.845 204.132 249.011 204.132 249.011C204.132 249.011 205.261 252.616 204.186 253.232C203.112 253.848 200.057 254.881 200.686 256.383C201.258 257.771 203.428 261.49 203.75 262.034L203.723 262.319L203.28 267.105C203.352 267.737 203.524 268.353 203.789 268.931C204.273 269.974 205.215 271.055 207.006 270.938C207.307 270.917 207.656 270.881 207.993 270.836C211.271 270.397 215.307 268.937 215.307 268.937C215.098 268.805 214.906 268.646 214.735 268.466C214.574 268.31 214.447 268.123 214.36 267.917C214.274 267.71 214.23 267.488 214.233 267.264C214.281 266.393 212.647 262.241 212.24 261.22C212.177 261.073 212.144 260.988 212.144 260.988C212.144 260.988 215.87 257.101 215.25 253.655C215.25 253.655 211.127 251.252 212.484 249.933C213.842 248.614 216.267 244.826 216.267 244.826C216.267 244.826 216.379 230.662 216.267 228.547C216.151 227.079 216.221 225.602 216.475 224.152C216.52 223.932 216.574 223.719 216.632 223.509C218.509 223.789 220.404 223.932 222.302 223.939C222.994 223.939 223.699 223.938 224.409 223.896C224.409 224.097 224.418 224.313 224.436 224.545C224.592 228.054 224.884 234.207 225.122 236.493C225.459 239.77 227.322 248.602 227.322 248.602C227.322 248.602 223.768 250.88 227.942 256.491C227.942 256.491 227.942 258.525 227.665 258.819C227.37 259.782 227.132 260.761 226.952 261.752C226.778 262.809 226.705 263.878 226.988 264.434C227.665 265.762 231.729 265.654 231.729 265.654L231.828 265.636C232.595 265.557 233.37 265.63 234.109 265.853C234.847 266.075 235.534 266.441 236.129 266.931C237.673 268.168 243.533 267.625 246.705 267.231C247.948 267.075 248.779 266.931 248.779 266.931C248.819 266.79 248.834 266.644 248.821 266.498C248.788 265.72 248.177 264.014 244.036 262.491C244.036 262.491 240.141 259.877 240.195 257.6H240.114H239.662C239.991 257.582 240.201 257.6 240.201 257.6C240.201 257.6 238.675 252.042 239.298 251.592C239.921 251.141 238.055 244.982 238.055 244.982C238.055 244.982 236.987 234.648 236.93 233.924C236.932 233.303 237.026 232.685 237.209 232.092L236.93 226.426C236.93 226.426 236.875 224.542 236.93 223.929C236.92 223.398 236.877 222.867 236.8 222.34C236.773 222.13 236.746 221.911 236.716 221.694C238.176 221.325 239.124 220.982 239.124 220.982L238.955 201.26C240.195 198.857 240.424 193.585 240.418 189.845C240.418 187.441 240.31 185.663 240.31 185.663L242.004 182.902C242.004 182.902 242.395 179.598 241.775 178.874C241.501 178.546 241.625 178.207 241.851 177.927C241.968 177.834 242.091 177.75 242.221 177.675C242.221 177.675 242.203 177.648 242.182 177.609C242.3 177.51 242.426 177.421 242.558 177.341C242.558 177.341 241.956 176.41 242.495 176.017C243 176.359 243.452 176.617 243.795 176.828C243.771 177.047 243.747 177.173 243.747 177.173L243.891 176.873C244.222 177.059 244.424 177.173 244.424 177.173C244.424 177.173 247.079 171.895 247.021 171.117C246.964 170.339 248.827 167.061 248.827 167.061C248.827 167.061 249.053 165.34 250.07 164.619C251.088 163.898 250.859 158.674 250.859 158.674C250.859 158.674 251.142 155.952 251.819 154.84C252.496 153.729 251.202 152.23 251.202 152.23ZM200.409 149.914L200.46 151.172C200.159 150.689 199.942 150.34 199.942 150.34L200.409 149.914Z" fill="url(#paint0_linear_6_373)"/>
<path d="M244.568 174.893L243.918 177.657C243.918 177.657 238.711 175.004 237.772 171.634C236.833 168.263 239.343 166.983 239.343 166.983L244.195 169.035L244.568 174.893Z" fill="white"/>
<path opacity="0.1" d="M244.568 174.893L243.918 177.657C243.918 177.657 238.711 175.004 237.772 171.634C236.833 168.263 239.343 166.983 239.343 166.983L244.195 169.035L244.568 174.893Z" fill="black"/>
<path d="M215.346 268.956C215.346 268.956 210.531 270.722 207.22 270.944C205.462 271.061 204.538 269.986 204.063 268.95C203.803 268.373 203.635 267.76 203.566 267.132L203.997 262.37L204.225 259.835L211.259 258.011L212.255 261.052L212.349 261.283C212.749 262.298 214.353 266.429 214.305 267.291C214.303 267.512 214.346 267.731 214.431 267.935C214.515 268.139 214.641 268.323 214.799 268.478C214.96 268.66 215.144 268.82 215.346 268.956Z" fill="white"/>
<path d="M248.24 266.534C248.252 266.679 248.238 266.824 248.198 266.964C248.198 266.964 237.899 268.679 235.792 266.964C235.198 266.463 234.506 266.091 233.759 265.873C233.013 265.655 232.229 265.594 231.458 265.696C231.458 265.696 227.473 265.804 226.808 264.495C226.531 263.945 226.603 262.878 226.775 261.827C226.95 260.842 227.183 259.868 227.473 258.91L227.632 258.784L228.58 258.024L239.681 257.696H239.765C239.711 259.961 243.533 262.56 243.533 262.56C247.593 264.062 248.192 265.759 248.24 266.534Z" fill="white"/>
<path opacity="0.1" d="M248.24 266.534C248.251 266.679 248.236 266.824 248.195 266.964C248.195 266.964 237.899 268.679 235.792 266.964C235.198 266.463 234.506 266.092 233.761 265.873C233.015 265.655 232.231 265.595 231.461 265.696C231.461 265.696 227.473 265.804 226.811 264.494C226.534 263.942 226.603 262.878 226.775 261.827C228.31 261.98 230.732 262.362 231.684 263.272C233.122 264.657 235.56 266.039 237.056 266.147C238.227 266.222 245.231 266.444 248.24 266.534Z" fill="black"/>
<path opacity="0.1" d="M215.346 268.956C215.346 268.956 210.531 270.722 207.22 270.944C205.462 271.061 204.538 269.986 204.066 268.947C205.291 269.358 206.991 269.791 207.885 269.394C208.945 268.926 212.701 268.622 214.808 268.493C214.968 268.668 215.149 268.823 215.346 268.956Z" fill="black"/>
<path d="M222.492 126.605C218.519 125.064 213.408 119.972 214.684 117.592C214.968 116.992 215.136 116.344 215.181 115.682C215.263 114.783 215.275 113.879 215.217 112.978C215.127 111.503 214.95 110.034 214.684 108.58C214.684 108.58 227.088 108.859 226.365 110.683C226.155 111.218 226.121 112.146 226.179 113.185C226.236 114.225 226.386 115.399 226.543 116.394C226.759 117.758 226.976 118.797 226.976 118.797C226.976 118.797 226.218 119.857 225.772 119.915C225.327 119.972 228.192 128.801 222.492 126.605Z" fill="#CF6F80"/>
<path opacity="0.1" d="M212.34 261.283L212.246 261.385C208.538 256.909 204.054 262.488 204.054 262.488L203.988 262.37L204.216 259.835L211.25 258.011L212.246 261.052L212.34 261.283Z" fill="black"/>
<path opacity="0.1" d="M239.768 258.012C239.768 258.012 237.059 257.954 235.614 259.228C234.17 260.502 227.187 259.505 227.488 259.228C227.577 259.091 227.631 258.934 227.644 258.772L228.592 258.012L239.693 257.684C239.735 257.885 239.768 258.012 239.768 258.012Z" fill="black"/>
<path d="M216.954 222.86C216.752 223.358 216.599 223.874 216.496 224.401C216.245 225.845 216.175 227.314 216.289 228.775C216.4 230.878 216.289 244.971 216.289 244.971C216.289 244.971 213.908 248.729 212.581 250.054C211.253 251.378 215.289 253.758 215.289 253.758C215.891 257.182 212.243 261.052 212.243 261.052C208.535 256.576 204.051 262.157 204.051 262.157C204.051 262.157 201.613 257.951 201.005 256.449C200.397 254.947 203.386 253.908 204.436 253.298C205.486 252.688 204.385 249.092 204.385 249.092C204.385 249.092 203.497 245.941 202.444 243.066C201.39 240.191 203.605 225.879 203.605 225.879C203.605 225.879 203.72 223.338 203.994 222.452C204.132 221.812 204.159 221.154 204.075 220.505C204.057 220.286 204.036 220.102 204.021 219.979C204.006 219.856 203.994 219.799 203.994 219.799L204.036 219.727L205.541 216.927C205.541 216.927 217.676 221.097 216.954 222.86Z" fill="#587EEC"/>
<path d="M239.768 257.681C239.768 257.681 237.059 257.624 235.614 258.883C234.17 260.142 227.187 259.159 227.488 258.883C227.789 258.607 227.765 256.561 227.765 256.561C223.669 250.979 227.163 248.714 227.163 248.714C227.163 248.714 225.333 239.927 225.002 236.667C224.77 234.39 224.484 228.271 224.331 224.777C224.264 223.275 224.225 222.241 224.225 222.241L227.572 221.569L228.003 221.481L236.075 219.865C236.075 219.865 236.298 221.367 236.448 222.596C236.523 223.121 236.565 223.649 236.574 224.179C236.52 224.78 236.574 226.661 236.574 226.661L236.848 232.299C236.669 232.891 236.577 233.505 236.574 234.123C236.629 234.841 237.679 245.121 237.679 245.121C237.679 245.121 239.506 251.255 238.883 251.697C238.26 252.139 239.768 257.681 239.768 257.681Z" fill="#587EEC"/>
<path opacity="0.1" d="M226.365 110.683C226.155 111.218 226.122 112.146 226.179 113.185C224.517 114.184 222.607 114.694 220.668 114.658C218.729 114.622 216.84 114.041 215.217 112.981C215.128 111.505 214.95 110.035 214.684 108.58C214.684 108.58 227.088 108.853 226.365 110.683Z" fill="black"/>
<path d="M231.16 104.044C231.162 105.126 230.992 106.202 230.654 107.231C229.9 109.536 228.354 111.501 226.289 112.779C224.224 114.056 221.772 114.564 219.369 114.212C216.965 113.86 214.763 112.671 213.152 110.855C211.542 109.04 210.626 106.714 210.567 104.29C210.567 104.206 210.567 104.128 210.567 104.044C210.544 102.679 210.793 101.324 211.3 100.056C211.807 98.7886 212.562 97.6345 213.52 96.6613C214.479 95.688 215.622 94.915 216.883 94.3873C218.144 93.8596 219.498 93.5879 220.865 93.5879C222.232 93.5879 223.586 93.8596 224.847 94.3873C226.108 94.915 227.251 95.688 228.21 96.6613C229.168 97.6345 229.923 98.7886 230.43 100.056C230.937 101.324 231.186 102.679 231.163 104.044H231.16Z" fill="#CF6F80"/>
<path opacity="0.1" d="M222.492 126.605C218.519 125.064 213.408 119.972 214.684 117.592C214.968 116.992 215.136 116.344 215.181 115.682L220.62 120.143L223.984 122.898L226.543 116.397C226.759 117.761 226.976 118.8 226.976 118.8C226.976 118.8 226.218 119.861 225.772 119.918C225.327 119.975 228.192 128.801 222.492 126.605Z" fill="black"/>
<path d="M236.556 146.321L232.015 222.476L226.091 222.863L210.754 178.705L213.27 126.28L213.799 115.204L220.62 120.795L223.988 123.55L226.621 116.859L231.518 121.119L236.556 146.321Z" fill="#587EEC"/>
<path opacity="0.1" d="M216.954 222.86C216.752 223.358 216.599 223.874 216.496 224.401C212.186 223.737 208 222.432 204.078 220.529L203.997 220.487L204.024 220.003L204.039 219.751L205.544 216.951C205.544 216.951 217.676 221.097 216.954 222.86Z" fill="black"/>
<path opacity="0.1" d="M227.641 224.413C226.54 224.6 225.428 224.727 224.313 224.792C224.246 223.29 224.207 222.256 224.207 222.256L227.554 221.583L227.641 224.413Z" fill="black"/>
<path opacity="0.1" d="M236.43 222.611C234.29 223.167 230.985 223.792 228.027 223.401L227.984 221.496L236.057 219.88C236.057 219.88 236.279 221.367 236.43 222.611Z" fill="black"/>
<path opacity="0.1" d="M227.973 223.749C215.632 225.852 204.331 219.823 204.331 219.823L204.439 217.78C204.439 217.78 204.719 194.621 203.942 192.846C203.166 191.07 202.561 182.067 203 180.685C203.44 179.303 201.396 158.581 201.396 158.581L201.065 150.169L188.948 145.269L194.365 133.998C195.097 132.418 195.726 130.792 196.249 129.131C197.191 126.205 201.565 123.33 201.565 123.33C201.565 123.33 206.049 120.458 207.822 120.566C209.595 120.675 211.918 118.025 211.918 118.025C213.634 113.66 215.187 115.637 215.187 115.637C215.187 115.844 215.187 115.637 215.103 116.283C214.501 121.074 224.836 136.215 224.984 136.482L225.968 160.413L226.964 190.698L227.973 223.749Z" fill="black"/>
<path d="M227.641 223.749C215.301 225.852 203.997 219.823 203.997 219.823L204.108 217.78C204.108 217.78 204.388 194.621 203.608 192.846C202.829 191.07 202.227 182.067 202.669 180.685C203.112 179.303 201.065 158.581 201.065 158.581L200.731 150.169L188.607 145.251L194.025 133.98C194.755 132.399 195.385 130.774 195.909 129.113C196.848 126.187 201.224 123.312 201.224 123.312C201.224 123.312 205.709 120.44 207.479 120.549C209.249 120.657 211.575 118.007 211.575 118.007C213.294 113.642 215.187 115.619 215.187 115.619C215.187 115.826 215.006 115.919 215.103 116.265C216.427 120.912 224.505 136.197 224.653 136.464L225.649 160.395L226.645 190.68L227.641 223.749Z" fill="white"/>
<path opacity="0.1" d="M224.316 137.146C222.988 136.594 215.957 128.582 215.957 128.582V126.758C215.702 126.157 214.182 126.524 212.948 126.944L213.477 115.868L214.079 116.367C215.398 121.011 224.162 136.879 224.316 137.146Z" fill="black"/>
<path d="M224.65 136.482C223.319 135.93 216.289 127.918 216.289 127.918V126.094C216.033 125.493 214.513 125.86 213.279 126.28L213.811 115.204L214.413 115.703C215.735 120.347 224.502 136.218 224.65 136.482Z" fill="white"/>
<path opacity="0.1" d="M204.331 176.44C204.496 176.44 212.911 175.557 212.911 175.557C212.911 175.557 218.007 185.558 217.673 187.991C217.339 190.424 216.734 192.578 214.684 192.197C212.635 191.815 203.653 192.497 203.653 192.497L204.331 176.44Z" fill="black"/>
<path d="M203.997 175.777C204.162 175.777 212.577 174.893 212.577 174.893C212.577 174.893 217.67 184.897 217.339 187.327C217.008 189.758 216.397 191.915 214.35 191.533C212.304 191.152 203.319 191.834 203.319 191.834L203.997 175.777Z" fill="white"/>
<path d="M210.338 171.081C210.338 171.081 218.061 175.224 218.227 176.488C218.392 177.753 214.296 175.936 213.411 175.716C212.829 175.576 212.236 175.484 211.638 175.44L205.736 175.599L210.338 171.081Z" fill="#CF6F80"/>
<path opacity="0.1" d="M222.161 137.663C222.609 137.663 222.973 137.3 222.973 136.852C222.973 136.404 222.609 136.041 222.161 136.041C221.712 136.041 221.348 136.404 221.348 136.852C221.348 137.3 221.712 137.663 222.161 137.663Z" fill="black"/>
<path d="M222.161 137.333C222.609 137.333 222.973 136.97 222.973 136.522C222.973 136.074 222.609 135.71 222.161 135.71C221.712 135.71 221.348 136.074 221.348 136.522C221.348 136.97 221.712 137.333 222.161 137.333Z" fill="#3F3D56"/>
<path opacity="0.1" d="M223.656 172.775C224.105 172.775 224.469 172.412 224.469 171.964C224.469 171.516 224.105 171.153 223.656 171.153C223.208 171.153 222.844 171.516 222.844 171.964C222.844 172.412 223.208 172.775 223.656 172.775Z" fill="black"/>
<path d="M223.656 172.442C224.105 172.442 224.469 172.079 224.469 171.631C224.469 171.183 224.105 170.82 223.656 170.82C223.208 170.82 222.844 171.183 222.844 171.631C222.844 172.079 223.208 172.442 223.656 172.442Z" fill="#3F3D56"/>
<path opacity="0.1" d="M222.97 155.219C223.419 155.219 223.783 154.856 223.783 154.408C223.783 153.96 223.419 153.597 222.97 153.597C222.521 153.597 222.158 153.96 222.158 154.408C222.158 154.856 222.521 155.219 222.97 155.219Z" fill="black"/>
<path d="M222.97 154.889C223.419 154.889 223.783 154.526 223.783 154.078C223.783 153.63 223.419 153.267 222.97 153.267C222.521 153.267 222.158 153.63 222.158 154.078C222.158 154.526 222.521 154.889 222.97 154.889Z" fill="#3F3D56"/>
<path d="M241.703 175.272C241.703 175.272 242.257 176.101 241.703 176.488C241.149 176.876 241.757 177.813 241.757 177.813C241.757 177.813 240.376 178.621 240.984 179.348C241.592 180.075 241.207 183.359 241.207 183.359L239.545 186.105C239.545 186.105 239.644 187.874 239.65 190.265C239.65 193.996 239.431 199.242 238.215 201.633L238.383 221.253C238.383 221.253 232.565 223.374 227.696 222.728L226.973 191.245C226.973 191.245 228.027 173.391 228.415 169.966C228.642 168.188 228.735 166.396 228.692 164.604C228.692 164.604 228.526 159.245 227.97 156.757C227.97 156.757 227.368 145.981 227.307 142.998C227.28 141.571 227.356 137.408 227.44 133.448C227.533 129.119 227.638 125.037 227.638 125.037L226.54 116.361C226.54 116.361 227.638 116.249 227.97 116.691C228.118 116.829 228.279 116.953 228.451 117.061C230.347 118.34 237.047 122.276 237.047 122.276C237.047 122.276 240.755 123.748 241.643 125.857C242.531 127.966 243.148 129.462 243.578 130.062C244.009 130.663 244.243 133.487 244.243 133.487C244.243 133.487 245.52 138.684 246.516 139.565C247.512 140.445 248.24 146.044 248.24 146.044L239.437 152.954C239.437 152.954 238.663 164.448 238.498 164.892C238.332 165.337 241.703 175.272 241.703 175.272Z" fill="white"/>
<path d="M242.037 175.272C242.037 175.272 242.588 176.101 242.037 176.489C241.486 176.876 242.088 177.813 242.088 177.813C242.088 177.813 240.716 178.63 241.318 179.357C241.92 180.084 241.541 183.368 241.541 183.368L239.879 186.114C239.879 186.114 239.978 187.883 239.988 190.275C239.988 194.006 239.768 199.251 238.552 201.642L238.717 221.262C238.717 221.262 232.89 223.383 228.027 222.737L227.307 191.254C227.307 191.254 228.361 173.4 228.749 169.976C228.976 168.198 229.068 166.405 229.023 164.613C229.023 164.613 228.857 159.254 228.304 156.766C228.304 156.766 227.702 145.991 227.638 143.007C227.611 141.581 227.69 137.417 227.771 133.457C227.864 129.128 227.969 125.046 227.969 125.046L226.519 116.253C226.519 116.253 227.969 116.253 228.304 116.7C228.45 116.84 228.612 116.964 228.785 117.07C230.681 118.35 237.384 122.285 237.384 122.285C237.384 122.285 241.089 123.757 241.977 125.866C242.865 127.975 243.482 129.471 243.915 130.072C244.349 130.673 244.577 133.496 244.577 133.496C244.577 133.496 245.854 138.694 246.85 139.574C247.846 140.454 248.565 146.042 248.565 146.042L239.762 152.951C239.762 152.951 238.988 164.445 238.82 164.89C238.651 165.334 242.037 175.272 242.037 175.272Z" fill="white"/>
<path opacity="0.1" d="M231.494 127.596L232.289 129.909L228.105 134.115C228.198 129.789 228.304 125.703 228.304 125.703L226.853 116.91C226.853 116.91 228.304 116.91 228.638 117.358C228.784 117.498 228.946 117.62 229.119 117.725L232.677 127.969L231.494 127.596Z" fill="black"/>
<path d="M231.16 126.932L231.957 129.245L227.774 133.451C227.867 129.122 227.972 125.04 227.972 125.04L226.519 116.247C226.519 116.247 227.972 116.247 228.304 116.694C228.451 116.833 228.613 116.957 228.785 117.064L232.346 127.305L231.16 126.932Z" fill="white"/>
<path opacity="0.1" d="M231.16 104.044C231.162 105.126 230.992 106.202 230.654 107.231C230.597 107.24 230.539 107.237 230.483 107.223C230.428 107.21 230.375 107.185 230.329 107.15C230.251 104.446 228.918 101.908 227.277 99.7479C226.817 99.0957 226.258 98.5182 225.622 98.0355C224.978 97.5531 224.178 97.3271 223.377 97.4016C222.474 97.5248 221.676 98.1376 220.764 98.2157C219.56 98.3149 218.483 97.4827 217.288 97.4407C216.802 97.4453 216.323 97.5532 215.882 97.7573C215.442 97.9615 215.05 98.257 214.732 98.6243C214.105 99.3655 213.638 100.229 213.363 101.16C212.89 102.571 212.632 104.046 212.599 105.534C212.583 106.375 212.502 107.429 211.72 107.736C211.779 107.117 211.708 106.493 211.513 105.903C211.318 105.313 211.002 104.77 210.585 104.308L210.567 104.29C210.567 104.206 210.567 104.128 210.567 104.044C210.544 102.679 210.793 101.324 211.3 100.056C211.807 98.7886 212.562 97.6345 213.52 96.6613C214.479 95.688 215.622 94.915 216.883 94.3873C218.144 93.8596 219.498 93.5879 220.865 93.5879C222.232 93.5879 223.586 93.8596 224.847 94.3873C226.108 94.915 227.251 95.688 228.21 96.6613C229.168 97.6345 229.923 98.7886 230.43 100.056C230.937 101.324 231.186 102.679 231.163 104.044H231.16Z" fill="black"/>
<path d="M225.128 87.7224C223.564 86.9881 221.785 86.8492 220.126 87.3319C219.292 87.5782 218.507 87.9777 217.661 88.179C215.855 88.6146 213.748 88.143 212.198 89.1974C211.337 89.7982 210.82 90.7476 210.338 91.6698L209.134 93.959C208.478 95.2117 207.816 96.4854 207.542 97.8643C207.268 99.2432 207.434 100.787 208.31 101.896C208.948 102.704 209.89 103.212 210.582 103.972C210.997 104.434 211.311 104.977 211.506 105.566C211.701 106.155 211.771 106.779 211.714 107.396C212.499 107.096 212.574 106.039 212.592 105.197C212.626 103.709 212.884 102.235 213.357 100.823C213.632 99.8923 214.098 99.0287 214.726 98.2879C215.044 97.9209 215.436 97.6256 215.876 97.4215C216.317 97.2174 216.796 97.1093 217.282 97.1043C218.486 97.1464 219.566 97.9755 220.758 97.8764C221.661 97.8013 222.462 97.1854 223.37 97.0652C224.172 96.9895 224.973 97.2156 225.616 97.6991C226.252 98.181 226.81 98.7587 227.268 99.4115C228.912 101.571 230.245 104.104 230.323 106.814C230.663 107.063 231.154 106.739 231.322 106.354C231.491 105.969 231.497 105.519 231.711 105.152C231.957 104.729 232.43 104.503 232.8 104.185C233.739 103.377 233.974 102.016 233.938 100.781C233.902 99.5467 233.661 98.2939 233.896 97.0803C234.037 96.3352 234.356 95.6383 234.531 94.9023C234.705 94.1663 234.726 93.3401 234.314 92.7062C233.712 91.775 232.445 91.5917 231.34 91.5046C230.085 91.3964 228.963 91.5346 228.162 90.4802C227.786 89.9299 227.363 89.4133 226.898 88.9361C226.738 88.7798 225.128 87.7885 225.128 87.7224Z" fill="#512E4E"/>
<path opacity="0.1" d="M192.415 151.073L189.27 145.269L188.273 154.225C188.273 154.225 188.827 158.202 188.716 158.812C188.605 159.422 190.985 164.889 190.985 164.889C190.985 164.889 198.85 178.871 202.061 179.592L212.912 171.853L210.034 168.206C210.034 168.206 209.038 167.818 208.788 168.206C208.788 168.206 203.446 159.031 202.892 158.367C202.338 157.703 202.447 156.379 202.447 156.379C202.447 156.379 201.616 155.495 201.893 154.666C202.17 153.837 200.289 150.962 200.289 150.962L202.004 149.361L192.415 151.073Z" fill="black"/>
<path d="M189.435 144.609L188.604 145.27L187.608 154.225C187.608 154.225 188.162 158.202 188.051 158.812C187.939 159.422 190.323 164.89 190.323 164.89C190.323 164.89 198.185 178.871 201.396 179.592L212.249 171.853L209.369 168.206C209.369 168.206 208.373 167.819 208.123 168.206C208.123 168.206 202.781 159.031 202.227 158.368C201.673 157.704 201.784 156.379 201.784 156.379C201.784 156.379 200.954 155.496 201.231 154.666C201.507 153.837 199.623 150.962 199.623 150.962L201.339 149.361L189.435 144.609Z" fill="white"/>
<path opacity="0.1" d="M240.984 179.691C241.586 180.421 241.206 183.698 241.206 183.698L239.545 186.444C239.545 186.444 239.644 188.217 239.65 190.605L236.857 191.476C236.605 191.555 236.337 191.572 236.077 191.526C235.816 191.481 235.571 191.374 235.36 191.214C235.149 191.055 234.98 190.847 234.866 190.609C234.752 190.371 234.697 190.109 234.705 189.845L235.187 174.34L241.703 176.828C241.149 177.212 241.757 178.156 241.757 178.156C241.757 178.156 240.376 178.961 240.984 179.691Z" fill="black"/>
<path d="M241.318 179.357C241.92 180.087 241.541 183.368 241.541 183.368L239.879 186.114C239.879 186.114 239.979 187.883 239.988 190.274L237.143 191.161C236.896 191.237 236.634 191.254 236.379 191.209C236.124 191.164 235.884 191.059 235.678 190.903C235.471 190.747 235.306 190.543 235.194 190.31C235.083 190.077 235.029 189.821 235.036 189.562L235.521 174.01L242.04 176.497C241.483 176.882 242.091 177.822 242.091 177.822C242.091 177.822 240.716 178.63 241.318 179.357Z" fill="white"/>
<path d="M243.476 171.967C243.476 171.967 243.033 174.788 241.926 174.953C240.818 175.119 240.322 179.517 239.217 179.36C238.112 179.204 238.844 175.272 238.883 174.509C238.922 173.746 237.679 170.585 238.609 169.867C239.539 169.149 242.483 169.867 242.483 169.867L243.476 171.967Z" fill="#CF6F80"/>
<path opacity="0.1" d="M245.833 150.244L247.921 146.038C247.921 146.038 248.752 149.244 248.752 150.956C248.752 152.669 249.914 152.837 249.914 152.837C249.914 152.837 251.187 154.339 250.516 155.432C249.845 156.526 249.574 159.248 249.574 159.248C249.574 159.248 249.793 164.442 248.797 165.16C247.801 165.878 247.593 167.593 247.593 167.593C247.593 167.593 245.763 170.853 245.821 171.628C245.878 172.403 243.274 177.651 243.274 177.651C243.274 177.651 244.547 171.129 237.128 168.311C237.128 168.311 237.071 166.097 237.625 165.49C238.179 164.883 239.042 164.607 238.501 161.54C237.959 158.473 238.344 154.808 238.344 154.072C238.344 153.335 240.006 148.745 240.006 148.745L245.833 150.244Z" fill="black"/>
<path d="M246.736 145.438L248.559 146.038C248.559 146.038 249.393 149.244 249.393 150.956C249.393 152.669 250.555 152.837 250.555 152.837C250.555 152.837 251.828 154.339 251.157 155.432C250.486 156.526 250.218 159.248 250.218 159.248C250.218 159.248 250.438 164.442 249.441 165.16C248.445 165.878 248.222 167.593 248.222 167.593C248.222 167.593 246.395 170.853 246.453 171.628C246.51 172.403 243.903 177.651 243.903 177.651C243.903 177.651 245.179 171.129 237.757 168.311C237.757 168.311 237.703 166.097 238.257 165.49C238.811 164.883 239.675 164.607 239.133 161.54C238.591 158.473 238.976 154.808 238.976 154.071C238.976 153.335 240.638 148.745 240.638 148.745L246.736 145.438Z" fill="white"/>
<path opacity="0.1" d="M206.45 254.449C206.45 254.449 209.357 252.625 211.265 253.95C213.173 255.275 206.45 254.449 206.45 254.449Z" fill="black"/>
<path opacity="0.1" d="M229.041 248.81C229.041 248.81 231.614 248.479 233.775 250.802C235.936 253.124 229.041 248.81 229.041 248.81Z" fill="black"/>
<g opacity="0.1">
<path opacity="0.1" d="M232.806 103.527C232.436 103.846 231.96 104.074 231.714 104.497C231.503 104.861 231.497 105.309 231.328 105.699C231.16 106.09 230.669 106.408 230.329 106.162C230.251 103.458 228.915 100.919 227.274 98.7565C226.816 98.1037 226.258 97.5261 225.622 97.0442C224.978 96.5608 224.176 96.3347 223.374 96.4103C222.471 96.5335 221.676 97.1463 220.764 97.2214C219.56 97.3235 218.48 96.4914 217.285 96.4493C216.799 96.4542 216.32 96.5625 215.88 96.7672C215.44 96.9718 215.049 97.2681 214.732 97.636C214.104 98.3757 213.638 99.2383 213.363 100.168C212.89 101.58 212.632 103.054 212.598 104.542C212.58 105.381 212.502 106.426 211.726 106.738C211.744 106.96 211.744 107.183 211.726 107.405C212.508 107.105 212.586 106.048 212.605 105.206C212.638 103.718 212.896 102.244 213.369 100.832C213.644 99.9013 214.11 99.0377 214.738 98.2969C215.055 97.93 215.447 97.6346 215.887 97.4305C216.327 97.2264 216.805 97.1183 217.291 97.1133C218.495 97.1553 219.578 97.9844 220.77 97.8853C221.673 97.8102 222.474 97.1944 223.38 97.0742C224.182 96.9986 224.984 97.2247 225.628 97.7081C226.264 98.19 226.822 98.7677 227.28 99.4204C228.921 101.58 230.257 104.113 230.335 106.823C230.675 107.072 231.166 106.748 231.334 106.363C231.503 105.978 231.509 105.528 231.72 105.161C231.966 104.738 232.442 104.512 232.812 104.194C233.751 103.386 233.986 102.025 233.95 100.79C233.95 100.751 233.95 100.712 233.95 100.676C233.893 101.746 233.607 102.836 232.806 103.527Z" fill="black"/>
<path opacity="0.1" d="M210.588 103.314C209.896 102.554 208.951 102.046 208.316 101.241C207.781 100.528 207.475 99.6702 207.44 98.7805C207.345 99.8923 207.656 101.001 208.316 101.902C208.951 102.71 209.896 103.218 210.588 103.978C211.253 104.721 211.652 105.663 211.723 106.657C211.769 106.052 211.692 105.445 211.497 104.87C211.302 104.295 210.993 103.766 210.588 103.314Z" fill="black"/>
<path opacity="0.1" d="M234.537 94.2442C234.359 94.9802 234.043 95.6802 233.899 96.4222C233.813 96.9181 233.782 97.4217 233.805 97.9243C233.815 97.638 233.847 97.3528 233.899 97.0711C234.043 96.3261 234.359 95.6291 234.537 94.8931C234.64 94.4872 234.674 94.0666 234.636 93.6494C234.617 93.8498 234.584 94.0486 234.537 94.2442Z" fill="black"/>
</g>
<path opacity="0.1" d="M152.219 266.663C168.416 266.663 181.547 264.559 181.547 261.962C181.547 259.365 168.416 257.26 152.219 257.26C136.022 257.26 122.892 259.365 122.892 261.962C122.892 264.559 136.022 266.663 152.219 266.663Z" fill="#587EEC"/>
<path d="M153.164 171.898H151.277V214.308H153.164V171.898Z" fill="#535461"/>
<path d="M165.023 214.178L164.905 216.089L164.737 218.793L164.668 219.916L164.502 222.62L164.43 223.744L164.261 226.447L162.359 257.11C162.277 258.43 161.693 259.668 160.728 260.573C159.763 261.479 158.489 261.983 157.164 261.983H147.274C145.95 261.983 144.676 261.478 143.711 260.573C142.747 259.668 142.164 258.429 142.082 257.11L140.189 226.426L140.021 223.723L139.951 222.599L139.783 219.895L139.714 218.772L139.545 216.068L139.425 214.157C139.404 213.79 139.458 213.422 139.585 213.076C139.712 212.73 139.908 212.413 140.162 212.146C140.415 211.878 140.721 211.665 141.06 211.52C141.399 211.375 141.764 211.3 142.133 211.3H162.362C162.73 211.304 163.093 211.382 163.429 211.531C163.765 211.679 164.067 211.895 164.317 212.165C164.566 212.434 164.757 212.752 164.879 213.099C165 213.445 165.049 213.812 165.023 214.178Z" fill="#3F3D56"/>
<path d="M164.905 216.089L164.737 218.784H139.702L139.533 216.089H164.905Z" fill="#9D9CB5"/>
<path d="M164.668 219.907L164.502 222.605H139.939L139.771 219.907H164.668Z" fill="#9D9CB5"/>
<path d="M164.43 223.731L164.264 226.426H140.177L140.009 223.731H164.43Z" fill="#9D9CB5"/>
<path d="M136.653 187.793C147.641 195.73 152.228 208.143 152.228 208.143C152.228 208.143 138.985 207.689 127.993 199.752C117.002 191.815 112.424 179.405 112.424 179.405C112.424 179.405 125.661 179.856 136.653 187.793Z" fill="#587EEC"/>
<path d="M112.415 179.405C112.415 179.405 126.164 187.021 130.573 193.327C134.982 199.632 152.228 208.143 152.228 208.143" stroke="#535461" stroke-width="2" stroke-miterlimit="10"/>
<path d="M143.747 171.805C149.727 176.122 152.228 182.878 152.228 182.878C152.228 182.878 145.02 182.632 139.036 178.315C133.053 173.998 130.558 167.239 130.558 167.239C130.558 167.239 137.763 167.485 143.747 171.805Z" fill="#587EEC"/>
<path d="M130.558 167.239C130.558 167.239 138.04 171.384 140.439 174.815C142.838 178.246 152.228 182.878 152.228 182.878" stroke="#535461" stroke-width="2" stroke-miterlimit="10"/>
<path d="M160.912 182.536C154.04 190.073 152.586 199.924 152.586 199.924C152.586 199.924 162.275 197.55 169.14 190.01C176.006 182.47 177.465 172.622 177.465 172.622C177.465 172.622 167.783 174.998 160.912 182.536Z" fill="#587EEC"/>
<path d="M177.471 172.625C177.471 172.625 168.52 180.352 166.245 185.675C163.969 190.998 152.586 199.924 152.586 199.924" stroke="#535461" stroke-width="2" stroke-miterlimit="10"/>
<path d="M413.149 179.883C413.149 179.883 408.18 155.207 410.082 152.137C410.082 152.137 410.152 149.283 410.037 145.645C410.037 145.507 410.037 145.369 410.037 145.227C410.372 145.45 410.721 145.651 411.082 145.828C412.834 146.727 414.846 146.986 416.77 146.561L415.265 144.888C414.904 144.488 414.528 144.056 414.45 143.527C414.371 142.998 414.588 142.527 414.775 142.055C416.204 138.45 416.28 133.917 413.526 131.165C411.199 128.852 410.633 125.866 408.108 123.754C406.263 122.207 405.249 119.939 404.292 117.746C403.482 115.892 402.666 114.023 402.203 112.059C401.842 110.524 401.697 108.934 401.201 107.435C400.704 105.936 399.774 104.479 398.32 103.809C397.803 103.572 397.228 103.437 396.755 103.121C396.135 102.704 395.762 102.025 395.313 101.43C393.035 98.426 385.405 100.195 381.793 101.415C380.812 101.722 379.902 102.225 379.121 102.893L379.154 102.839C379.181 102.794 379.214 102.749 379.244 102.704C378.849 103.023 378.507 103.403 378.233 103.83C377.706 104.663 377.487 105.633 377.047 106.534C376.517 107.601 373.571 110.578 374.838 111.776C374.927 111.857 375.028 111.922 375.139 111.969C375.615 112.166 376.138 112.218 376.644 112.119L376.59 112.248C376.157 113.306 375.935 114.437 375.936 115.58C375.936 120.515 380.015 124.517 385.05 124.517C385.997 124.518 386.938 124.373 387.84 124.087C387.861 124.201 387.879 124.316 387.9 124.43C387.9 124.475 387.915 124.52 387.921 124.565L387.762 124.787C387.754 124.774 387.745 124.76 387.735 124.748L383.009 131.339C382.287 131.847 378.128 134.851 377.893 137.104C377.646 139.571 377.399 142.458 377.399 142.458L377.366 143.076C377.16 143.249 376.918 143.374 376.658 143.444C376.398 143.514 376.127 143.527 375.861 143.482C374.386 143.242 374.386 148.889 374.386 148.889C374.386 148.889 373.405 149.791 372.731 149.01C372.057 148.229 370.275 150.875 370.275 150.875L359.109 151.356L358.853 151.371L358.251 149.511C358.186 149.315 358.046 149.152 357.862 149.058C357.678 148.965 357.464 148.947 357.267 149.01C357.22 149.025 357.175 149.044 357.131 149.067L357.089 149.091L357.011 149.145L356.972 149.181C356.95 149.2 356.93 149.221 356.912 149.244L356.876 149.286L356.857 149.304C356.788 149.4 356.742 149.511 356.723 149.628C356.704 149.744 356.713 149.864 356.749 149.977L357.267 151.572C355.112 152.005 352.909 153.224 354.705 156.583L345.598 154.904L348.544 157.373L363.756 160.506C363.554 160.867 363.687 161.39 364.316 162.126C367.024 165.301 371.961 166.163 373.947 166.385C374.472 167.557 375.127 168.665 375.9 169.69L375.729 172.853C375.729 172.853 370.699 196.965 369.778 198.187C370.243 197.661 370.669 197.102 371.052 196.514C369.592 201.468 367.551 208.248 367.015 209.263C366.155 210.886 365.357 217.45 366.338 217.87C366.639 217.999 367.5 217.936 368.728 217.843V218.387L368.674 238.992C368.674 238.992 368.921 251.631 368.243 252.835C367.566 254.04 367.386 256.567 367.386 256.567C367.386 256.567 364.677 261.55 362.531 263.554C362.516 263.57 362.5 263.584 362.483 263.596L362.417 263.128C362.417 263.128 359.837 266.378 354.131 266.195C354.131 266.195 350.696 268.424 355.789 268.544C360.882 268.664 367.386 268.364 367.386 268.364C367.386 268.364 371.927 261.454 375.732 262.356V267.592H376.897V262.271C377.437 261.916 377.899 261.456 378.256 260.917C378.612 260.379 378.855 259.773 378.97 259.138C379.07 258.483 378.997 257.814 378.758 257.196C378.52 256.578 378.124 256.033 377.61 255.614C377.379 255.406 377.194 255.152 377.066 254.869C376.938 254.585 376.87 254.279 376.866 253.968L376.824 254.004C376.824 253.899 376.797 253.791 376.785 253.68C376.451 250.976 376.033 245.397 377.511 241.27C379.536 235.61 380.15 227.727 378.675 223.034C378.2 221.534 377.809 220.009 377.505 218.465C377.468 218.27 377.435 218.084 377.405 217.909C378.413 218.046 379.412 218.246 380.394 218.51C383.81 219.45 391.283 219.625 397.664 219.574C397.679 219.748 397.697 219.931 397.718 220.114C397.832 221.388 398.07 222.648 398.429 223.876C399.229 226.279 399.596 236.874 399.596 236.874C399.596 236.874 400.629 245.586 400.066 249.131C399.765 251.102 399.464 253.082 399.292 255.07V255.11C399.292 255.11 397.601 259.916 396.364 262.527C396.334 262.593 396.301 262.659 396.271 262.722C395.941 262.752 395.616 262.824 395.304 262.935C395.304 262.935 393.646 266.24 391.994 266.787C390.341 267.333 390.889 269.133 394.63 268.472C398.371 267.811 404.021 267.27 404.021 267.27L404.265 263.9L405.414 262.464L405.113 265.825L406.338 265.585L406.176 261.496L408.057 259.147C408.057 259.147 410.329 257.128 406.952 253.157V253.244C406.916 253.187 406.883 253.127 406.844 253.07V253.052C406.284 252.187 405.839 250.573 406.654 247.71C408.129 242.537 408.987 237.842 408.987 237.842C408.987 237.842 412.28 225.263 408.322 219.312H408.496C408.091 218.475 407.804 217.585 407.645 216.669C407.624 216.561 407.606 216.449 407.59 216.335C410.519 216.167 413.393 215.638 415.738 214.497C415.729 214.485 414.317 184.636 413.149 179.883ZM375.97 159.064V159.124L375.368 159.155L375.97 159.064ZM373.905 159.35C373.806 159.372 373.713 159.416 373.634 159.479C373.375 159.844 373.213 160.269 373.161 160.714L372.222 160.503C372.222 160.503 371.563 160.362 370.615 160.203L370.167 159.752C371.401 159.65 372.683 159.5 373.905 159.35Z" fill="url(#paint1_linear_6_373)"/>
<path d="M404.975 261.538L404.617 265.795L405.818 265.555L405.637 260.938L404.975 261.538Z" fill="#1D2366"/>
<path d="M377.577 241.326C376.129 245.442 376.538 250.997 376.863 253.694C376.984 254.692 377.095 255.299 377.095 255.299C377.095 255.299 374.931 260.219 374.75 260.406C374.57 260.592 368.382 264.362 368.382 264.362L364.057 266.883C364.057 266.883 359.669 264.963 361.772 264.302C362.202 264.13 362.589 263.866 362.907 263.53C365.014 261.532 367.659 256.566 367.659 256.566C367.659 256.566 367.84 254.046 368.502 252.847C369.164 251.649 368.924 239.052 368.924 239.052L368.975 218.519V215.842L377.206 215.902C377.258 216.811 377.377 217.715 377.562 218.606C377.857 220.145 378.24 221.665 378.708 223.16C380.159 227.844 379.557 235.688 377.577 241.326Z" fill="#FFB0B1"/>
<path opacity="0.1" d="M377.095 255.299C377.095 255.299 374.931 260.22 374.751 260.406C374.57 260.592 368.382 264.362 368.382 264.362L364.057 266.883C364.057 266.883 359.669 264.963 361.772 264.302C362.202 264.13 362.589 263.867 362.907 263.53L363.094 264.843L364.535 264.783L376.875 253.701C376.984 254.692 377.095 255.299 377.095 255.299Z" fill="black"/>
<path d="M376.945 253.98L364.535 265.137L363.094 265.197L362.793 263.095C362.793 263.095 360.271 266.333 354.666 266.153C354.666 266.153 351.301 268.373 356.289 268.493C361.276 268.613 367.644 268.313 367.644 268.313C367.644 268.313 372.093 261.403 375.816 262.304V267.523H376.96V262.256C377.492 261.899 377.945 261.438 378.294 260.901C378.643 260.364 378.879 259.762 378.988 259.132C379.087 258.483 379.017 257.819 378.785 257.204C378.552 256.59 378.165 256.045 377.661 255.623C377.436 255.412 377.256 255.158 377.133 254.875C377.01 254.593 376.946 254.288 376.945 253.98Z" fill="#1D2366"/>
<path d="M406.119 247.743C405.318 250.597 405.754 252.205 406.302 253.067V253.085C407.005 254.149 407.493 255.34 407.741 256.591L407.789 256.861L402.143 265.077L399.079 266.279C399.079 266.279 394.152 264.6 395.052 264.119C395.277 264.002 395.629 263.377 396.033 262.515C397.237 259.916 398.898 255.122 398.898 255.122V255.083C399.073 253.103 399.35 251.129 399.657 249.164C400.207 245.629 399.196 236.95 399.196 236.95C399.196 236.95 398.835 226.396 398.052 223.996C397.699 222.775 397.464 221.524 397.351 220.259C397.189 218.757 397.152 217.519 397.152 217.519C397.152 217.519 400.397 213.013 406.344 217.879C406.82 218.267 407.238 218.721 407.587 219.225C411.696 225.059 408.388 237.911 408.388 237.911C408.388 237.911 407.56 242.585 406.119 247.743Z" fill="#FFB0B1"/>
<path opacity="0.1" d="M407.798 256.861L402.152 265.077L399.088 266.279C399.088 266.279 394.161 264.6 395.061 264.119C395.286 264.002 395.639 263.377 396.042 262.515C398.128 262.497 399.208 264.479 399.208 264.479L401.851 264.059C401.851 264.059 405.336 257.221 406.119 256.804C406.901 256.386 406.239 253.683 406.239 253.683V252.995C406.26 253.019 406.278 253.046 406.302 253.07V253.088C407.005 254.152 407.493 255.343 407.741 256.594L407.798 256.861Z" fill="black"/>
<path d="M399.389 264.657C399.389 264.657 397.884 261.899 395 262.917C395 262.917 393.378 266.222 391.756 266.757C390.134 267.291 390.675 269.094 394.341 268.436C398.007 267.778 403.533 267.234 403.533 267.234L403.774 263.873L407.5 259.135C407.5 259.135 409.721 257.125 406.417 253.169V253.857C406.417 253.857 407.079 256.561 406.296 256.978C405.514 257.396 402.04 264.236 402.04 264.236L399.389 264.657Z" fill="#1D2366"/>
<path opacity="0.1" d="M377.216 215.897C377.268 216.805 377.386 217.709 377.571 218.6C374.182 218.105 371.037 218.351 368.975 218.513V215.837L377.216 215.897Z" fill="black"/>
<path opacity="0.1" d="M407.921 219.973C407.921 219.973 403.106 220.208 397.363 220.256C397.201 218.754 397.164 217.516 397.164 217.516C397.164 217.516 400.409 213.01 406.356 217.876C406.832 218.265 407.25 218.718 407.599 219.222C407.693 219.478 407.8 219.729 407.921 219.973Z" fill="black"/>
<path d="M407.921 219.432C407.921 219.432 386.829 220.451 380.4 218.651C373.971 216.852 367.599 218.411 366.639 217.993C365.679 217.576 366.459 211.036 367.301 209.417C368.144 207.797 372.767 191.422 372.767 191.422L377.216 168.272L381.902 166.983L382.233 166.89L390.398 164.643L396.382 162.994C396.382 162.994 408.28 209.356 407.259 212.775C406.889 214.084 406.829 215.461 407.085 216.798C407.241 217.71 407.522 218.597 407.921 219.432Z" fill="#1D2366"/>
<path d="M361.709 152.44C361.709 152.44 357.496 156.946 360.686 159.458C363.876 161.969 365.974 159.698 365.974 159.698L361.709 152.44Z" fill="#C7DAF5"/>
<path opacity="0.1" d="M361.709 152.44C361.709 152.44 357.496 156.946 360.686 159.458C363.876 161.969 365.974 159.698 365.974 159.698L361.709 152.44Z" fill="black"/>
<path d="M395.753 122.814C395.753 122.814 395.259 123.282 394.516 123.973C393.456 124.962 391.888 126.407 390.498 127.617C388.571 129.29 386.982 130.519 387.551 129.471C388.12 128.422 388.012 126.596 387.729 124.886C387.708 124.772 387.69 124.658 387.669 124.547C387.434 123.292 387.124 122.052 386.739 120.834C386.739 120.834 389.851 116.82 391.572 115.237C392.213 114.636 392.662 114.39 392.689 114.808C392.719 115.369 393.14 116.61 393.664 117.926C393.679 117.968 393.694 118.007 393.712 118.049C394.061 118.95 394.456 119.876 394.802 120.675C395.331 121.9 395.753 122.814 395.753 122.814Z" fill="#FFB0B1"/>
<path opacity="0.1" d="M393.712 118.049C393.42 119.619 392.71 121.082 391.658 122.285C390.605 123.487 389.248 124.386 387.729 124.886C387.489 123.515 387.159 122.161 386.739 120.834C386.739 120.834 392.599 113.278 392.689 114.807C392.71 115.387 393.167 116.673 393.712 118.049Z" fill="black"/>
<path opacity="0.1" d="M387.145 126.905L387.903 125.839C387.903 125.839 388.406 128.897 390.254 127.548C392.102 126.199 392.192 137.699 392.192 137.699L390.209 167.299L375.876 166.443L376.283 152.14L377.905 144.93L381.917 134.449L384.304 130.985L387.145 126.905Z" fill="black"/>
<path d="M392.192 137.882L390.386 164.646L390.197 167.482L382.206 167.004L381.905 166.986L375.885 166.626L376.292 152.32L377.914 145.11L381.926 134.629L384.313 131.165L387.154 127.07L387.912 126.007C387.912 126.007 388.415 129.065 390.263 127.716L390.302 127.689C392.108 126.548 392.192 137.882 392.192 137.882Z" fill="#1D2366"/>
<path d="M378.116 142.605C378.116 142.605 377.396 144.107 375.951 143.864C374.507 143.62 374.51 149.271 374.51 149.271C374.51 149.271 373.55 150.172 372.888 149.391C372.225 148.61 370.48 151.251 370.48 151.251L359.542 151.731C359.542 151.731 364.409 153.951 363.455 160.669C363.455 160.669 379.979 159.647 380.52 158.088C381.062 156.529 378.116 142.605 378.116 142.605Z" fill="white"/>
<path opacity="0.03" d="M378.116 142.605C378.116 142.605 377.396 144.107 375.951 143.864C374.507 143.62 374.51 149.271 374.51 149.271C374.51 149.271 373.55 150.172 372.888 149.391C372.225 148.61 370.48 151.251 370.48 151.251L359.542 151.731C359.542 151.731 364.409 153.951 363.455 160.669C363.455 160.669 379.979 159.647 380.52 158.088C381.062 156.529 378.116 142.605 378.116 142.605Z" fill="black"/>
<path d="M346.329 155.261L349.213 157.719L372.948 162.696L370.004 159.698L346.329 155.261Z" fill="white"/>
<path d="M387.19 127.851C386.796 128.452 385.667 131.529 384.725 134.214C383.939 136.452 383.283 138.42 383.283 138.42C383.283 138.42 381.751 148.376 380.969 150.175C380.186 151.975 380.611 158.992 380.611 158.992L377.694 176.323C377.694 176.323 376.373 185.26 374.332 190.599C372.319 195.853 370.076 198.316 370.007 198.395C370.91 197.175 375.831 173.16 375.831 173.16L377.456 142.872C377.456 142.872 377.694 139.994 377.935 137.534C378.176 135.073 383.051 131.715 383.051 131.715L387.753 125.043C388.225 125.673 387.909 126.773 387.19 127.851Z" fill="white"/>
<path d="M374.931 166.776C374.931 166.776 368.009 166.476 364.656 162.456C361.303 158.437 372.406 160.852 372.406 160.852L375.292 161.513L374.931 166.776Z" fill="#FFB0B1"/>
<path opacity="0.1" d="M407.259 212.778C406.889 214.087 406.829 215.465 407.085 216.801C399.533 217.335 391.455 215.299 391.455 215.299C389.95 216.681 385.986 218.717 385.986 218.717L383.825 191.981C382.444 188.376 381.902 169.489 381.902 169.489C381.902 169.489 382.025 168.5 382.203 167.019C382.203 166.983 382.203 166.944 382.218 166.908C382.757 162.771 383.825 155.006 384.349 153.957C385.071 152.515 382.128 148.679 382.128 148.679L383.467 137.278L383.629 135.902C386.453 134.644 388.617 130.624 388.617 130.624L390.278 127.719C392.084 126.563 392.177 137.897 392.177 137.897L390.371 164.661L396.355 163.012C396.355 163.012 408.28 209.36 407.259 212.778Z" fill="black"/>
<path d="M415.009 214.626C406.778 218.706 391.816 214.926 391.816 214.926C390.311 216.308 386.347 218.345 386.347 218.345L384.183 191.608C382.805 188.003 382.263 169.116 382.263 169.116C382.263 169.116 384.003 155.024 384.725 153.585C384.936 153.164 384.833 152.54 384.584 151.867C383.355 148.664 382.904 145.216 383.265 141.806L383.843 136.906L384.003 135.533C386.829 134.271 388.993 130.252 388.993 130.252L390.498 127.62L393.267 122.772L394.579 120.476L394.802 120.678L396.502 122.216C396.502 122.216 397.225 122.817 398.308 123.718C400.665 125.701 404.737 129.191 406.838 131.327C408.686 133.208 409.27 140.523 409.438 146.03C409.55 149.656 409.484 152.497 409.484 152.497C407.62 155.559 412.493 180.136 412.493 180.136C413.628 184.885 415.009 214.626 415.009 214.626Z" fill="white"/>
<path opacity="0.03" d="M399.208 130.192C399.208 130.192 393.559 140.926 394.215 145.005C394.871 149.085 396.737 153.702 395.837 154.781C395.528 155.189 395.128 155.521 394.669 155.75C394.21 155.978 393.705 156.098 393.192 156.099C392.289 156.16 389.881 157.839 389.881 158.019C389.881 158.199 387.657 158.199 385.667 159.04C383.678 159.882 380.74 160.359 380.74 160.359C380.74 160.359 375.022 160.179 374.489 160.72C373.956 161.261 373.408 164.496 374.549 167.077C375.69 169.657 376.957 171.583 377.914 171.934C378.871 172.286 384.945 170.255 389.872 169.774C394.799 169.294 400.147 165.397 400.147 165.397C400.147 165.397 406.037 163.294 407.07 159.758C408.102 156.223 405.809 136.789 405.809 136.789C405.809 136.789 404.075 127.731 399.208 130.192Z" fill="black"/>
<path opacity="0.03" d="M398.486 129.291C398.486 129.291 392.836 140.027 393.499 144.104C394.161 148.181 396.021 152.801 395.118 153.882C394.81 154.291 394.411 154.623 393.952 154.852C393.493 155.081 392.988 155.201 392.475 155.201C391.572 155.261 389.164 156.941 389.164 157.121C389.164 157.301 386.94 157.301 384.951 158.139C382.961 158.977 380.024 159.458 380.024 159.458C380.024 159.458 374.305 159.278 373.775 159.819C373.246 160.359 372.692 163.598 373.836 166.175C374.979 168.753 376.243 170.682 377.201 171.033C378.158 171.384 384.231 169.354 389.158 168.876C394.085 168.398 399.434 164.496 399.434 164.496C399.434 164.496 405.321 162.393 406.341 158.86C407.362 155.327 405.08 135.888 405.08 135.888C405.08 135.888 403.353 126.833 398.486 129.291Z" fill="black"/>
<path d="M399.031 129.651C399.031 129.651 393.381 140.388 394.043 144.464C394.705 148.541 396.566 153.161 395.666 154.24C395.358 154.65 394.958 154.983 394.499 155.212C394.04 155.442 393.533 155.561 393.02 155.562C392.117 155.622 389.709 157.301 389.709 157.478C389.709 157.656 387.488 157.659 385.496 158.5C383.503 159.341 380.569 159.818 380.569 159.818C380.569 159.818 374.85 159.638 374.317 160.179C373.784 160.72 373.237 163.958 374.377 166.536C375.518 169.113 376.785 171.042 377.742 171.393C378.699 171.745 384.773 169.714 389.7 169.233C394.627 168.753 399.976 164.856 399.976 164.856C399.976 164.856 405.866 162.754 406.898 159.218C407.93 155.682 405.652 136.248 405.652 136.248C405.652 136.248 403.894 127.206 399.031 129.651Z" fill="white"/>
<path opacity="0.1" d="M398.907 158.449C398.907 158.449 394.392 157.547 395.963 159.049C397.535 160.551 397.526 161.867 399.449 161.807C401.372 161.747 398.907 158.449 398.907 158.449Z" fill="black"/>
<path opacity="0.1" d="M406.537 190.767C406.537 190.767 404.496 192.146 408.4 195.324C412.304 198.503 406.537 190.767 406.537 190.767Z" fill="black"/>
<path opacity="0.1" d="M402.642 202.102C402.642 202.282 401.92 208.711 404.623 210.318C407.325 211.925 402.642 202.102 402.642 202.102Z" fill="black"/>
<path d="M359.729 151.716C357.55 151.791 352.842 152.455 355.283 157.001C357.441 161.023 361.068 158.334 363.109 156.295C362.611 154.393 361.401 152.754 359.729 151.716Z" fill="#FFB0B1"/>
<path d="M363.136 156.259L363.226 156.166L363.136 156.259Z" fill="#FFB0B1"/>
<path opacity="0.1" d="M398.308 123.901C395.997 125.478 394.058 126.809 393.679 127.085C392.644 127.851 390.669 132.349 389.396 134.644C388.382 136.491 385.086 136.966 383.843 137.083L384.003 135.71C386.829 134.448 388.993 130.429 388.993 130.429L394.579 120.653L396.502 122.399C396.502 122.399 397.225 123 398.308 123.901Z" fill="black"/>
<path d="M398.308 123.721C395.997 125.298 394.058 126.629 393.679 126.908C392.644 127.671 390.669 132.168 389.396 134.464C388.382 136.311 385.086 136.786 383.843 136.903L384.003 135.53C386.829 134.268 388.993 130.249 388.993 130.249L394.579 120.473L396.502 122.213C396.502 122.213 397.225 122.807 398.308 123.721Z" fill="#DCE7FF"/>
<path d="M393.86 116.066C393.861 117.87 393.313 119.631 392.289 121.116C391.079 122.873 389.278 124.138 387.214 124.682C385.149 125.227 382.957 125.015 381.036 124.084C379.115 123.154 377.591 121.567 376.742 119.611C375.893 117.656 375.774 115.461 376.407 113.425C377.041 111.39 378.384 109.648 380.194 108.517C382.003 107.385 384.159 106.939 386.271 107.258C388.382 107.578 390.309 108.642 391.701 110.258C393.094 111.874 393.859 113.935 393.86 116.066Z" fill="#FFB0B1"/>
<path opacity="0.1" d="M409.438 146.032C408.216 145.282 407.221 144.215 406.558 142.944C406.055 141.953 405.721 140.808 404.863 140.105C404.09 139.474 403.058 139.321 402.094 139.039C398.928 138.105 396.274 135.221 396.174 131.928C396.126 130.378 396.611 128.831 396.391 127.296C396.266 126.427 395.92 125.605 395.386 124.907C395.12 124.574 394.83 124.262 394.516 123.973C394.094 123.577 393.652 123.192 393.267 122.771C393.024 122.511 392.812 122.224 392.635 121.915C392.492 121.663 392.376 121.396 392.289 121.119C391.687 119.281 392.234 117.1 391.572 115.24L391.536 115.138C391.286 114.477 390.778 113.816 390.07 113.765C389.363 113.714 388.758 114.3 388.084 114.561C386.672 115.108 385.149 114.177 383.973 113.227C382.796 112.278 381.468 111.194 379.973 111.404C378.982 111.545 378.2 112.218 377.288 112.566C377.082 112.646 376.869 112.707 376.653 112.75C377.425 110.829 378.843 109.236 380.663 108.245C382.484 107.254 384.593 106.927 386.629 107.319C388.665 107.712 390.501 108.8 391.82 110.397C393.14 111.994 393.861 113.999 393.86 116.069C393.861 116.694 393.795 117.318 393.664 117.929C393.679 117.971 393.694 118.01 393.712 118.052C394.061 118.953 394.456 119.878 394.802 120.678L396.502 122.216C396.502 122.216 397.225 122.817 398.308 123.718C400.665 125.7 404.737 129.191 406.838 131.327C408.686 133.214 409.264 140.526 409.438 146.032Z" fill="black"/>
<path d="M377.183 107.078C377.613 106.204 377.827 105.224 378.341 104.395C379.097 103.194 380.415 102.424 381.769 101.959C385.306 100.742 392.779 98.9757 395.012 101.959C395.452 102.56 395.816 103.227 396.424 103.641C396.888 103.957 397.447 104.092 397.956 104.329C399.38 104.996 400.289 106.45 400.773 107.934C401.258 109.418 401.402 111.01 401.757 112.539C402.212 114.501 403.009 116.361 403.804 118.208C404.74 120.389 405.733 122.651 407.539 124.192C410.004 126.295 410.549 129.272 412.836 131.58C415.545 134.319 415.458 138.841 414.061 142.431C413.878 142.902 413.67 143.395 413.742 143.897C413.815 144.398 414.188 144.855 414.54 145.254L416.021 146.922C412.517 147.766 408.553 145.939 406.922 142.734C406.42 141.743 406.085 140.601 405.225 139.895C404.454 139.264 403.419 139.114 402.459 138.832C399.292 137.894 396.638 135.007 396.538 131.715C396.49 130.168 396.975 128.621 396.755 127.088C396.633 126.214 396.285 125.386 395.747 124.685C394.919 123.607 393.67 122.883 392.996 121.681C391.855 119.671 392.722 117.061 391.9 114.904C391.648 114.243 391.142 113.582 390.435 113.531C389.727 113.48 389.122 114.066 388.445 114.327C387.037 114.874 385.514 113.945 384.337 112.993C383.16 112.041 381.833 110.959 380.334 111.173C379.344 111.311 378.564 111.984 377.652 112.335C376.978 112.593 375.611 112.825 375.021 112.257C373.775 111.112 376.662 108.147 377.183 107.078Z" fill="#591D4B"/>
<path opacity="0.1" d="M407.759 141.743C407.253 140.751 406.922 139.61 406.061 138.907C405.291 138.276 404.255 138.123 403.292 137.84C400.129 136.906 397.474 134.019 397.372 130.727C397.324 129.179 397.809 127.629 397.592 126.097C397.466 125.228 397.119 124.406 396.584 123.709C395.753 122.63 394.504 121.906 393.833 120.705C392.692 118.698 393.559 116.087 392.734 113.927C392.484 113.269 391.976 112.609 391.271 112.555C390.567 112.5 389.956 113.092 389.282 113.354C387.873 113.9 386.347 112.969 385.174 112.02C384 111.07 382.666 109.986 381.17 110.196C380.18 110.337 379.398 111.01 378.489 111.359C377.815 111.617 376.445 111.852 375.855 111.284C374.615 110.082 377.502 107.123 378.019 106.06C378.45 105.182 378.663 104.206 379.181 103.377C379.208 103.332 379.238 103.287 379.268 103.242C378.881 103.562 378.547 103.941 378.278 104.365C377.763 105.194 377.55 106.168 377.119 107.048C376.599 108.111 373.712 111.079 374.955 112.272C375.557 112.843 376.912 112.609 377.586 112.35C378.489 111.999 379.277 111.326 380.268 111.188C381.772 110.974 383.097 112.059 384.271 113.008C385.444 113.957 386.979 114.889 388.382 114.342C389.056 114.081 389.646 113.492 390.368 113.546C391.091 113.6 391.572 114.258 391.834 114.919C392.656 117.076 391.789 119.686 392.93 121.696C393.604 122.877 394.853 123.616 395.681 124.7C396.219 125.401 396.567 126.229 396.689 127.104C396.909 128.636 396.424 130.183 396.472 131.73C396.572 135.034 399.226 137.909 402.392 138.847C403.347 139.129 404.388 139.279 405.158 139.91C406.022 140.616 406.362 141.758 406.856 142.749C408.487 145.954 412.451 147.781 415.955 146.937L415.256 146.15C412.219 146.195 409.146 144.47 407.759 141.743Z" fill="black"/>
<path opacity="0.1" d="M387.009 128.032C386.615 128.633 385.486 131.709 384.544 134.395C383.663 134.052 382.862 131.868 382.862 131.868L387.563 125.193C388.045 125.854 387.729 126.95 387.009 128.032Z" fill="black"/>
<path d="M387.19 127.851C386.796 128.452 385.667 131.528 384.725 134.214C383.843 133.875 383.043 131.688 383.043 131.688L387.744 125.016C388.225 125.673 387.909 126.773 387.19 127.851Z" fill="#DCE7FF"/>
<path d="M359.855 158.542L357.249 150.337C357.218 150.241 357.206 150.14 357.215 150.04C357.223 149.939 357.251 149.841 357.298 149.752C357.344 149.662 357.408 149.582 357.485 149.518C357.563 149.453 357.652 149.403 357.748 149.373C357.942 149.313 358.152 149.331 358.333 149.425C358.513 149.518 358.649 149.679 358.711 149.872L361.318 158.067L361.059 159.782L359.855 158.542Z" fill="#BE8B87"/>
<path opacity="0.1" d="M357.496 149.616C357.69 149.555 357.901 149.573 358.082 149.667C358.263 149.76 358.4 149.921 358.462 150.115L361.068 158.31L360.873 159.596L361.062 159.795L361.321 158.079L358.699 149.884C358.637 149.691 358.501 149.53 358.321 149.437C358.14 149.343 357.93 149.325 357.736 149.385C357.573 149.438 357.432 149.544 357.336 149.686C357.387 149.658 357.441 149.635 357.496 149.616Z" fill="white"/>
<path d="M359.855 158.542L361.318 158.079L361.104 159.485L361.059 159.795L360.632 159.35L359.855 158.542Z" fill="#EFC8C4"/>
<path d="M360.632 159.35C360.657 159.318 360.689 159.291 360.725 159.272C360.746 159.258 360.771 159.251 360.796 159.251C360.821 159.251 360.845 159.258 360.867 159.272C360.887 159.296 360.904 159.324 360.918 159.353C360.938 159.386 360.965 159.414 360.997 159.436C361.029 159.457 361.066 159.471 361.104 159.476L361.059 159.776L360.632 159.35Z" fill="#727A9C"/>
<path d="M357.234 153.251C357.234 153.251 362.462 153.221 361.231 155.441C360 157.662 358.076 157.929 358.076 157.929L357.234 153.251Z" fill="#FFB0B1"/>
<path d="M324.719 53.6193H324.493C315.512 53.6193 307.569 58.3628 303 65.3624C298.431 58.3628 290.489 53.6193 281.507 53.6193H281.282C274.542 53.6834 268.099 56.3999 263.354 61.1785C258.61 65.9571 255.946 72.4116 255.942 79.1394C255.942 87.4939 259.608 99.3482 266.757 109.103C280.376 127.689 303 143.951 303 143.951C303 143.951 325.625 127.692 339.241 109.103C346.392 99.3482 350.055 87.4939 350.055 79.1394C350.052 72.4121 347.388 65.958 342.644 61.1795C337.9 56.401 331.459 53.6842 324.719 53.6193ZM321.489 110.533C320.467 110.529 319.469 110.216 318.627 109.636C317.785 109.056 317.139 108.235 316.773 107.282H311.404C311.05 107.28 310.706 107.168 310.419 106.961C310.133 106.754 309.918 106.463 309.805 106.128L308.156 101.169L302.937 119.371C302.836 119.721 302.623 120.029 302.331 120.249C302.039 120.468 301.683 120.587 301.318 120.587H301.213C300.831 120.569 300.468 120.421 300.183 120.167C299.898 119.913 299.709 119.57 299.647 119.193L294.269 86.9051L290.338 106.011C290.248 106.374 290.039 106.697 289.744 106.927C289.448 107.157 289.085 107.282 288.71 107.282H281.146C280.92 107.292 280.693 107.255 280.481 107.175C280.269 107.095 280.075 106.973 279.911 106.817C279.747 106.66 279.617 106.472 279.528 106.263C279.439 106.055 279.393 105.831 279.393 105.604C279.393 105.378 279.439 105.154 279.528 104.945C279.617 104.737 279.747 104.549 279.911 104.392C280.075 104.235 280.269 104.113 280.481 104.033C280.693 103.953 280.92 103.917 281.146 103.926H287.386L292.954 78.2381C293.045 77.8583 293.266 77.522 293.578 77.2867C293.89 77.0514 294.275 76.9316 294.666 76.9479C295.057 76.9642 295.43 77.1156 295.722 77.3762C296.013 77.6367 296.205 77.9902 296.264 78.3763L301.757 111.314L306.434 95.0282C306.532 94.6852 306.738 94.3829 307.021 94.1663C307.305 93.9497 307.651 93.8306 308.009 93.8266H308.042C308.395 93.8267 308.74 93.9383 309.027 94.1454C309.313 94.3526 309.527 94.6447 309.637 94.9802L312.62 103.935H316.707C316.997 103.054 317.526 102.27 318.235 101.67C318.944 101.07 319.805 100.677 320.724 100.534C321.642 100.392 322.582 100.506 323.44 100.863C324.298 101.22 325.04 101.806 325.585 102.558C326.13 103.31 326.456 104.197 326.528 105.122C326.599 106.047 326.414 106.973 325.991 107.8C325.568 108.626 324.925 109.319 324.132 109.804C323.339 110.288 322.428 110.545 321.498 110.545L321.489 110.533Z" fill="#EC5863"/>
</g>
<g filter="url(#filter1_d_6_373)">
<circle cx="278.585" cy="156" r="20.3936" fill="#587EEC"/>
</g>
<path d="M285.383 156L275.186 161.887L275.186 150.113L285.383 156Z" fill="white"/>
<defs>
<filter id="filter0_d_6_373" x="0" y="0" width="557.17" height="320" filterUnits="userSpaceOnUse" color-interpolation-filters="sRGB">
<feFlood flood-opacity="0" result="BackgroundImageFix"/>
<feColorMatrix in="SourceAlpha" type="matrix" values="0 0 0 0 0 0 0 0 0 0 0 0 0 0 0 0 0 0 127 0" result="hardAlpha"/>
<feOffset dy="4"/>
<feGaussianBlur stdDeviation="9"/>
<feColorMatrix type="matrix" values="0 0 0 0 0.345098 0 0 0 0 0.494118 0 0 0 0 0.92549 0 0 0 0.18 0"/>
<feBlend mode="normal" in2="BackgroundImageFix" result="effect1_dropShadow_6_373"/>
<feBlend mode="normal" in="SourceGraphic" in2="effect1_dropShadow_6_373" result="shape"/>
</filter>
<filter id="filter1_d_6_373" x="256.192" y="135.606" width="44.7872" height="44.7872" filterUnits="userSpaceOnUse" color-interpolation-filters="sRGB">
<feFlood flood-opacity="0" result="BackgroundImageFix"/>
<feColorMatrix in="SourceAlpha" type="matrix" values="0 0 0 0 0 0 0 0 0 0 0 0 0 0 0 0 0 0 127 0" result="hardAlpha"/>
<feOffset dy="2"/>
<feGaussianBlur stdDeviation="1"/>
<feColorMatrix type="matrix" values="0 0 0 0 0 0 0 0 0 0 0 0 0 0 0 0 0 0 0.16 0"/>
<feBlend mode="normal" in2="BackgroundImageFix" result="effect1_dropShadow_6_373"/>
<feBlend mode="normal" in="SourceGraphic" in2="effect1_dropShadow_6_373" result="shape"/>
</filter>
<linearGradient id="paint0_linear_6_373" x1="219.518" y1="270.953" x2="219.518" y2="86.0969" gradientUnits="userSpaceOnUse">
<stop stop-color="#808080" stop-opacity="0.25"/>
<stop offset="0.54" stop-color="#808080" stop-opacity="0.12"/>
<stop offset="1" stop-color="#808080" stop-opacity="0.1"/>
</linearGradient>
<linearGradient id="paint1_linear_6_373" x1="67295.3" y1="139515" x2="67295.3" y2="44626.4" gradientUnits="userSpaceOnUse">
<stop stop-color="#808080" stop-opacity="0.25"/>
<stop offset="0.54" stop-color="#808080" stop-opacity="0.12"/>
<stop offset="1" stop-color="#808080" stop-opacity="0.1"/>
</linearGradient>
</defs>
</svg>
